<?xml version="1.0" encoding="UTF-8"?>
<svg version="1.1" xmlns="http://www.w3.org/2000/svg" width="948" height="1080">
<path d="M0 0 C2.57868125 -0.00186961 5.15736222 -0.00417091 7.73604274 -0.00686532 C13.33023209 -0.01199854 18.9244128 -0.01344015 24.51860428 -0.01240921 C32.83734086 -0.01087993 41.15606792 -0.01505553 49.47480265 -0.02028384 C65.19620706 -0.02993917 80.9176082 -0.03276735 96.63901523 -0.03334089 C108.77678739 -0.03380081 120.91455827 -0.03586108 133.05233002 -0.03904152 C136.54871392 -0.03993907 140.04509783 -0.04082889 143.54148173 -0.0417164 C144.84534079 -0.04204797 144.84534079 -0.04204797 146.17554044 -0.04238624 C170.61292349 -0.04853725 195.05030611 -0.0524871 219.48768997 -0.05204296 C220.4084096 -0.05202738 221.32912923 -0.0520118 222.27774945 -0.05199575 C226.94416379 -0.05191265 231.61057813 -0.05181361 236.27699247 -0.05171105 C237.20373563 -0.0516911 238.13047879 -0.05167115 239.08530507 -0.05165061 C240.95940084 -0.05161017 242.83349662 -0.05156837 244.70759239 -0.05152521 C273.88553125 -0.05091204 303.0634585 -0.05842809 332.24139404 -0.07209778 C365.03198202 -0.0874537 397.82256237 -0.09606438 430.61315417 -0.09513456 C434.10828066 -0.09505993 437.60340714 -0.09501122 441.09853363 -0.09498024 C441.95910822 -0.09496859 442.81968281 -0.09495693 443.70633541 -0.09494492 C457.55929134 -0.09491414 471.41223719 -0.10130161 485.26519012 -0.1099125 C499.18010101 -0.11838324 513.09499714 -0.1193834 527.00990918 -0.11280318 C535.2775835 -0.10910437 543.54521299 -0.11094988 551.81288257 -0.12074552 C557.98281767 -0.1274387 564.15270481 -0.12370162 570.32263765 -0.1158723 C572.82104707 -0.11432963 575.31946131 -0.11618215 577.81786504 -0.12173238 C581.20913803 -0.12876854 584.60017864 -0.12351743 587.99144363 -0.1151762 C588.96519605 -0.12014438 589.93894846 -0.12511256 590.94220853 -0.13023129 C596.82203303 -0.09958003 602.12742494 0.62816388 607.80780029 2.13371277 C608.64198486 2.32868347 609.47616943 2.52365417 610.33563232 2.72453308 C634.2677325 8.61460361 656.82163808 18.14673827 675.80780029 34.13371277 C676.74623779 34.87234558 677.68467529 35.61097839 678.65155029 36.37199402 C714.72391459 64.8955068 736.16967481 109.3520971 742.41326904 154.39933777 C743.6422569 166.0321337 743.95705872 177.52903658 743.94061279 189.21183777 C743.9412879 190.91722121 743.94225964 192.62260456 743.94351196 194.32798767 C743.94497442 197.87114901 743.94287833 201.41428489 743.93817139 204.95744324 C743.93242228 209.50714216 743.9357946 214.05678276 743.94174385 218.60647964 C743.94534435 222.11333157 743.94421416 225.62016946 743.94161606 229.12702179 C743.94094806 230.80642962 743.94177078 232.48583871 743.94409561 234.16524506 C743.94661933 236.49624058 743.942788 238.82713863 743.93719482 241.15812683 C743.93921906 241.85411484 743.94124329 242.55010284 743.94332886 243.2671814 C743.92207428 248.01943878 743.92207428 248.01943878 742.80780029 249.13371277 C740.77249356 249.23268696 738.73369559 249.26003578 736.69598389 249.26069641 C736.05063375 249.2622564 735.40528362 249.26381639 734.74037743 249.26542366 C732.56230814 249.26943527 730.38430768 249.26624341 728.20623779 249.2631073 C726.65108194 249.26446127 725.09592641 249.26624118 723.54077148 249.26841736 C719.3053535 249.2729922 715.06995975 249.27120192 710.83454132 249.26803827 C706.41205274 249.26551493 701.9895663 249.26785214 697.56707764 249.26942444 C690.13885117 249.27124621 682.71063463 249.26883962 675.28240967 249.26408386 C666.68174888 249.25864123 658.0811118 249.26040388 649.48045158 249.26591027 C642.10977411 249.27044118 634.73910379 249.27109205 627.36842537 249.2684716 C622.96025326 249.2669087 618.5520923 249.2667154 614.1439209 249.27000809 C610.00061681 249.27288649 605.85734342 249.27091169 601.71404266 249.26511383 C600.18898317 249.26378606 598.6639211 249.26418063 597.13886261 249.2663765 C595.06574517 249.26908736 592.99272767 249.2657077 590.9196167 249.26069641 C589.75669098 249.26031939 588.59376526 249.25994236 587.39559937 249.25955391 C584.80780029 249.13371277 584.80780029 249.13371277 583.80780029 248.13371277 C583.69977117 246.09439139 583.66150894 244.05134979 583.65008545 242.00920105 C583.63469223 240.04178452 583.63469223 240.04178452 583.61898804 238.03462219 C583.61555012 237.32912357 583.6121122 236.62362495 583.6085701 235.89674759 C583.59681262 233.69462728 583.57736817 231.49270591 583.55545044 229.29066467 C583.49372915 223.02829085 583.43977391 216.76593585 583.40643311 210.50334167 C583.38550784 206.67651229 583.35022035 202.85004256 583.30567551 199.02341843 C583.29149541 197.56341151 583.28278853 196.10334093 583.27962112 194.64326859 C583.27472249 192.6011062 583.24997265 190.55902048 583.2243042 188.51701355 C583.21621735 187.35420868 583.20813049 186.19140381 583.19979858 184.99336243 C582.75483974 181.74736258 582.34070071 181.08421866 579.80780029 179.13371277 C577.76435746 178.68562432 577.76435746 178.68562432 575.47191203 178.75536394 C574.57916602 178.74734094 573.68642002 178.73931793 572.76662111 178.7310518 C571.78284156 178.73750361 570.79906201 178.74395541 569.78547096 178.75060272 C568.21487067 178.74316345 568.21487067 178.74316345 566.61254108 178.73557389 C563.06859004 178.72251685 559.52500957 178.73103448 555.98104858 178.73930359 C553.42876871 178.73441947 550.87649106 178.72823191 548.3242172 178.7208457 C542.75682084 178.70689889 537.18950575 178.70420957 531.62209511 178.70880508 C523.34325542 178.71562106 515.06449839 178.70540025 506.78567018 178.69184753 C491.14129388 178.66689689 475.49695163 178.66242047 459.85255863 178.6643135 C447.77410067 178.66568494 435.69565458 178.66187689 423.61719894 178.65438843 C421.88376609 178.65333811 420.15033324 178.65229049 418.41690039 178.65124556 C417.12625695 178.65046655 417.12625695 178.65046655 415.80953991 178.64967179 C414.94756253 178.64915165 414.08558514 178.64863151 413.19748724 178.64809561 C412.33409975 178.64757162 411.47071226 178.64704762 410.58116151 178.64650775 C386.28668529 178.63191768 361.99221343 178.62364495 337.69773293 178.62825775 C336.78126656 178.62842971 335.8648002 178.62860166 334.92056214 178.62877883 C330.27523042 178.62966776 325.62989871 178.63061257 320.984567 178.63157684 C320.06194035 178.63176787 319.13931371 178.6319589 318.18872868 178.63215572 C316.32295195 178.63254281 314.45717522 178.63293314 312.59139849 178.6333267 C283.556078 178.63929752 254.52083719 178.62385759 225.48553467 178.59172058 C192.88622367 178.55566969 160.28696321 178.53630742 127.68763101 178.54125929 C124.21376507 178.54172929 120.73989913 178.54213954 117.26603317 178.54251099 C116.41063964 178.54261337 115.55524611 178.54271576 114.67393156 178.54282125 C101.74294167 178.54401768 88.81200625 178.53202796 75.88103104 178.5133667 C61.17987315 178.49216146 46.47882976 178.48824719 31.77766682 178.50766629 C23.54466638 178.51801794 15.31194492 178.51445813 7.07896951 178.49113544 C0.94150486 178.47528611 -5.19565361 178.48539194 -11.33309884 178.50585645 C-13.82366095 178.51007268 -16.31425432 178.50574205 -18.80478351 178.49226052 C-22.17643132 178.47524446 -25.54659814 178.48868192 -28.9181881 178.51009369 C-29.89728531 178.49781616 -30.87638253 178.48553864 -31.88514936 178.47288907 C-36.47335689 178.53424456 -38.53575732 178.6389924 -42.29500008 181.47210312 C-44.71819813 184.8716438 -44.82069646 186.88411645 -44.82711792 191.04130554 C-44.83491787 191.72400308 -44.84271783 192.40670062 -44.85075414 193.11008596 C-44.87065372 195.39130158 -44.85491983 197.67084501 -44.83917236 199.95207214 C-44.84594948 201.59000623 -44.85485314 203.22793269 -44.86572266 204.86584473 C-44.88851173 209.31014764 -44.87968145 213.75387004 -44.86382723 218.19818306 C-44.85116614 222.84968248 -44.86290892 227.50113229 -44.87075806 232.15263367 C-44.87985402 239.96396303 -44.86786814 247.77505601 -44.84405518 255.58634949 C-44.81684395 264.61663491 -44.82565815 273.64635589 -44.8531872 282.67662764 C-44.87587882 290.43050705 -44.87907812 298.18421657 -44.86599386 305.93811846 C-44.85819961 310.56889631 -44.85715696 315.19940888 -44.8736763 319.83016968 C-44.88812263 324.18391522 -44.87809684 328.53693324 -44.84920502 332.8906002 C-44.842595 334.4881488 -44.84449052 336.08575865 -44.85551834 337.68328285 C-44.86919042 339.86505422 -44.85204339 342.04449695 -44.82711792 344.22612 C-44.82523279 345.44653236 -44.82334766 346.66694473 -44.82140541 347.92433929 C-43.99697238 352.12950383 -42.47852761 353.44118889 -39.19219971 356.13371277 C-36.20094939 356.87078971 -36.20094939 356.87078971 -32.90569592 356.75060272 C-31.63068507 356.76095787 -30.35567423 356.77131301 -29.0420267 356.78198195 C-27.62928606 356.76819171 -26.21654978 356.75394933 -24.80381775 356.73930359 C-23.30122319 356.74203429 -21.79863129 356.74697388 -20.29605037 356.75393343 C-16.16502934 356.76675368 -12.03463641 356.74848662 -7.90368211 356.72528863 C-3.4487438 356.70575967 1.00614159 356.71513569 5.46110535 356.72122192 C13.18384845 356.72802169 20.90640293 356.71709514 28.62911415 356.69473267 C39.81229335 356.66281541 50.99529628 356.66317768 62.1785089 356.67237312 C80.34508156 356.68689751 98.51159469 356.68279221 116.67816162 356.66349792 C117.76570215 356.66234948 118.85324269 356.66120103 119.97373899 356.66001779 C128.79172451 356.6505664 137.60970893 356.64021637 146.42769337 356.62980938 C154.11958079 356.62076586 161.8114685 356.61207525 169.50335693 356.60392761 C170.58623725 356.60277397 171.66911756 356.60162034 172.78481243 356.60043174 C190.8697827 356.58177397 208.95470144 356.58274472 227.03967446 356.59758902 C238.18683598 356.60579076 249.33371674 356.59638739 260.48083564 356.56399333 C268.12975367 356.54288855 275.77854821 356.53956244 283.42748783 356.54994166 C287.83461339 356.55528728 292.24133633 356.55255541 296.64840317 356.52760124 C300.69366781 356.50482612 304.73825929 356.50561888 308.78353956 356.52408689 C310.23656934 356.52670543 311.68964621 356.52107829 313.14259735 356.50573593 C333.97051237 356.29894646 351.3928475 364.30998091 366.80780029 378.13371277 C367.44201904 378.68543152 368.07623779 379.23715027 368.72967529 379.80558777 C384.634533 394.54311647 394.19026329 417.20249281 395.18280029 438.61027527 C395.92282687 465.98549225 389.13612377 488.41596062 370.80780029 509.13371277 C370.21483154 509.82593933 369.62186279 510.51816589 369.01092529 511.23136902 C361.74293684 519.12900993 352.29268081 524.76860473 342.55780029 529.07121277 C341.92108398 529.35351746 341.28436768 529.63582214 340.62835693 529.92668152 C330.86704023 534.02349748 321.58608588 534.42618913 311.12390137 534.40113831 C309.63792034 534.40487925 308.15194129 534.40948254 306.66596532 534.41486895 C302.59944988 534.4270605 298.53301694 534.42684301 294.46648741 534.4244802 C290.07355206 534.42407103 285.68064282 534.43512107 281.28771973 534.44459534 C272.68522818 534.46118773 264.08276405 534.46670418 255.48025784 534.46782009 C248.48074381 534.46877188 241.48123878 534.4728887 234.4817276 534.47922134 C214.60909 534.49683283 194.73647397 534.50606094 174.86382851 534.5045604 C173.25779864 534.50444053 173.25779864 534.50444053 171.61932373 534.50431824 C170.54731922 534.50423648 169.4753147 534.50415471 168.3708252 534.50407048 C151.0229233 534.50325872 133.67510847 534.52236887 116.32723173 534.55059497 C98.48733346 534.57939084 80.64747752 534.59313143 62.80755544 534.59140742 C52.80298897 534.59074559 42.79851364 534.59614612 32.7939682 534.61776352 C24.27002042 534.63606423 15.74620504 534.64025062 7.22224602 534.62674467 C2.88136801 534.62025814 -1.45925667 534.61993924 -5.80010986 534.63745117 C-54.30491876 534.82068141 -94.67042307 521.18347523 -129.88360596 486.48136902 C-166.72341916 447.15797291 -181.35468137 397.18745429 -181.33746338 344.25260925 C-181.34046246 342.39301487 -181.34386669 340.5334211 -181.34764099 338.67382812 C-181.35641013 333.66100695 -181.35881613 328.64820289 -181.35945678 323.63537478 C-181.36017145 320.49164643 -181.36231363 317.34792232 -181.36495399 314.20419502 C-181.37418479 303.20275221 -181.37829183 292.20132144 -181.37750244 281.19987488 C-181.37690264 271.00030192 -181.38744127 260.80078201 -181.4032461 250.60122246 C-181.41639189 241.79898377 -181.42168339 232.99676227 -181.42104703 224.19451386 C-181.42079406 218.95757269 -181.42353288 213.72067873 -181.43422508 208.48374748 C-181.44402516 203.54978374 -181.44390521 198.61591117 -181.43670845 193.68194389 C-181.43567714 191.88952498 -181.43793685 190.09710003 -181.44406891 188.30469131 C-181.49735838 171.62370166 -180.75225812 154.74419634 -176.94219971 138.44621277 C-176.72313965 137.48892273 -176.50407959 136.53163269 -176.27838135 135.54533386 C-165.51733508 89.9409846 -138.81838202 48.92395471 -99.06256104 23.55387878 C-67.39993637 4.23438413 -36.33264009 -0.02495858 0 0 Z " fill="#FEFEFE" transform="translate(195.19219970703125,181.8662872314453)"/>
<path d="M0 0 C1.81735153 -0.00422974 1.81735153 -0.00422974 3.67141724 -0.00854492 C5.0263063 -0.00660033 6.38119522 -0.00455214 7.73608398 -0.00241089 C9.1533106 -0.0037649 10.57053686 -0.00554483 11.98776245 -0.00772095 C15.84716015 -0.01229535 19.70653123 -0.0105057 23.56592941 -0.00734186 C27.59603703 -0.00481829 31.6261423 -0.00715579 35.65625 -0.00872803 C42.42537853 -0.01054973 49.19449617 -0.00814339 55.96362305 -0.00338745 C63.80084258 0.00205517 71.63803611 0.00029252 79.47525501 -0.00521386 C86.19201029 -0.00974496 92.90875772 -0.01039555 99.62551403 -0.00777519 C103.64244704 -0.0062124 107.65936781 -0.0060187 111.67630005 -0.00931168 C115.45189767 -0.01219035 119.22746161 -0.01021477 123.00305557 -0.00441742 C124.39266021 -0.0030898 125.78226765 -0.00348397 127.17187119 -0.00568008 C129.06103162 -0.00839149 130.95019821 -0.00439686 132.83935547 0 C133.89904037 0.00037703 134.95872528 0.00075405 136.05052185 0.0011425 C138.41967773 0.12698364 138.41967773 0.12698364 139.41967773 1.12698364 C139.52032021 2.85353454 139.5504432 4.58422627 139.5533905 6.31370544 C139.55765549 7.43891602 139.56192047 8.56412659 139.5663147 9.72343445 C139.56586151 10.96946945 139.56540833 12.21550446 139.56494141 13.4992981 C139.56997932 15.4556871 139.56997932 15.4556871 139.57511902 17.45159912 C139.58398967 21.04574802 139.58629884 24.63987313 139.5869348 28.23403192 C139.58764536 30.48669892 139.58978013 32.73935987 139.59243202 34.99202538 C139.60170637 42.87352252 139.60576566 50.75500271 139.60498047 58.63650513 C139.60438407 65.94055007 139.61484346 73.24452009 139.63072413 80.54854614 C139.64391066 86.84182397 139.64915953 93.13507773 139.64852506 99.42836922 C139.64827264 103.17597493 139.65097762 106.92351458 139.66170311 110.67110634 C139.71443331 130.47638546 139.67806642 150.2133921 135.23217773 169.62698364 C135.0164209 170.58217896 134.80066406 171.53737427 134.57836914 172.52151489 C127.27440467 203.56721891 112.52365798 231.33766823 91.41967773 255.12698364 C90.35485454 256.41673578 89.29189999 257.70803706 88.23217773 259.00198364 C84.9741752 262.77978146 81.25241007 265.94794892 77.41967773 269.12698364 C76.69135742 269.74315552 75.96303711 270.35932739 75.21264648 270.99417114 C64.1655958 280.11760604 52.67209086 287.25896936 39.79467773 293.50198364 C38.77043701 294.00181763 37.74619629 294.50165161 36.69091797 295.01663208 C25.28557873 300.4067581 13.39453164 303.50490673 1.15795898 306.36917114 C0.32393555 306.57026489 -0.51008789 306.77135864 -1.36938477 306.97854614 C-2.10882324 307.15208618 -2.84826172 307.32562622 -3.61010742 307.50442505 C-5.86678673 308.11701955 -5.86678673 308.11701955 -8.58032227 310.12698364 C-10.6057253 310.37774398 -10.6057253 310.37774398 -12.97802949 310.37883264 C-13.88459721 310.3840959 -14.79116494 310.38935916 -15.72520441 310.39478192 C-16.72445572 310.39038543 -17.72370703 310.38598895 -18.75323868 310.38145924 C-20.34826579 310.38626895 -20.34826579 310.38626895 -21.97551566 310.39117584 C-25.57481539 310.39954405 -29.17395164 310.39352779 -32.77325439 310.38768005 C-35.36535526 310.39069764 -37.95745524 310.39458513 -40.54955363 310.39927262 C-46.20400114 310.4080564 -51.85841243 310.40933903 -57.51286507 310.40576935 C-65.92125473 310.40047503 -74.32960918 310.40654484 -82.73799501 310.41485228 C-98.62782539 310.43011884 -114.51763987 310.43179458 -130.40747604 310.42932925 C-142.6766082 310.42749868 -154.94573513 310.42925125 -167.21486664 310.4335537 C-168.97575016 310.43415609 -170.73663369 310.43475729 -172.49751721 310.4353573 C-175.15081682 310.43626453 -177.80411642 310.43717319 -180.45741603 310.43808965 C-205.13770412 310.44652342 -229.81799024 310.450852 -254.49827957 310.44668293 C-255.4293241 310.44652655 -256.36036862 310.44637018 -257.31962662 310.44620906 C-262.03882791 310.44540325 -266.75802918 310.44455748 -271.47723046 310.44369576 C-272.88317093 310.44343913 -272.88317093 310.44343913 -274.31751424 310.44317731 C-276.212952 310.44283066 -278.10838975 310.44248213 -280.00382751 310.44213173 C-309.49564618 310.43677473 -338.98743495 310.4447026 -368.47924805 310.46316528 C-401.5934976 310.48387129 -434.70772862 310.49461058 -467.82198501 310.4905898 C-471.35149495 310.49019444 -474.88100489 310.48983289 -478.41051483 310.48949242 C-479.27960502 310.48940168 -480.14869521 310.48931095 -481.04412147 310.48921747 C-494.17731282 310.48805036 -507.3104855 310.49470852 -520.44367218 310.50530434 C-535.37751195 310.51734043 -550.31131053 310.51893379 -565.24515089 310.50651417 C-573.60652839 310.49987212 -581.96780749 310.50154748 -590.32917717 310.51510268 C-596.56573905 310.524288 -602.80219176 310.51786239 -609.03874561 310.50525489 C-611.56702747 310.5025892 -614.09532072 310.50503259 -616.62359145 310.51299075 C-620.05058946 310.52303236 -623.4770647 310.51472953 -626.90404129 310.50171375 C-627.89392793 310.5090231 -628.88381458 310.51633244 -629.90369779 310.52386329 C-635.60913911 310.4787073 -639.48844257 309.71217802 -644.58032227 307.12698364 C-646.4797368 306.56537444 -648.39329721 306.04917736 -650.31860352 305.58401489 C-651.37716553 305.31919312 -652.43572754 305.05437134 -653.52636719 304.78152466 C-654.63729736 304.50365112 -655.74822754 304.22577759 -656.89282227 303.93948364 C-668.08181872 301.0268297 -678.26626948 297.30807869 -688.58032227 292.12698364 C-689.87066751 291.50584971 -691.16103175 290.88475524 -692.45141602 290.26370239 C-708.38393634 282.38177393 -722.23047536 270.8106102 -734.58032227 258.12698364 C-735.09272461 257.63069458 -735.60512695 257.13440552 -736.13305664 256.62307739 C-768.30491655 225.28732232 -785.03391847 176.49059975 -785.67373657 132.30554199 C-785.72452694 126.57417473 -785.71961993 120.84289641 -785.71313477 115.11135864 C-785.71380943 113.00241078 -785.71478081 110.89346298 -785.71603394 108.78451538 C-785.71749938 104.39394378 -785.71539109 100.00339268 -785.71069336 95.61282349 C-785.70495433 89.97351354 -785.70830848 84.33425075 -785.71426582 78.69494247 C-785.71786675 74.35427489 -785.71673576 70.01361865 -785.71413803 65.67295074 C-785.71346964 63.59162643 -785.71429414 61.51030109 -785.71661758 59.42897797 C-785.71914094 56.53759492 -785.71530999 53.64629048 -785.7097168 50.75491333 C-785.71275314 49.45846138 -785.71275314 49.45846138 -785.71585083 48.13581848 C-785.6945937 42.24125508 -785.6945937 42.24125508 -784.58032227 41.12698364 C-782.54501553 41.02800945 -780.50621756 41.00066064 -778.46850586 41 C-777.82315573 40.99844001 -777.1778056 40.99688002 -776.5128994 40.99527276 C-774.33483012 40.99126114 -772.15682965 40.994453 -769.97875977 40.99758911 C-768.42360391 40.99623514 -766.86844838 40.99445523 -765.31329346 40.99227905 C-761.07787547 40.98770421 -756.84248173 40.98949449 -752.60706329 40.99265814 C-748.18457471 40.99518148 -743.76208827 40.99284427 -739.33959961 40.99127197 C-731.91137314 40.9894502 -724.4831566 40.99185679 -717.05493164 40.99661255 C-708.45427085 41.00205518 -699.85363377 41.00029253 -691.25297356 40.99478614 C-683.88229608 40.99025523 -676.51162576 40.98960436 -669.14094734 40.99222481 C-664.73277523 40.99378771 -660.32461428 40.99398101 -655.91644287 40.99068832 C-651.77313878 40.98780992 -647.62986539 40.98978472 -643.48656464 40.99558258 C-641.96150514 40.99691035 -640.43644308 40.99651578 -638.91138458 40.99431992 C-636.83826715 40.99160905 -634.76524965 40.99498871 -632.69213867 41 C-631.52921295 41.00037703 -630.36628723 41.00075405 -629.16812134 41.0011425 C-626.58032227 41.12698364 -626.58032227 41.12698364 -625.58032227 42.12698364 C-625.47101727 45.00209408 -625.42608779 47.85406374 -625.42260742 50.73001099 C-625.4175267 51.6324202 -625.41244598 52.53482941 -625.4072113 53.46458435 C-625.39648284 55.43112582 -625.38787244 57.39767969 -625.38109207 59.36423874 C-625.36934417 62.47366563 -625.34990241 65.58295102 -625.32797241 68.69232178 C-625.26621584 77.5354036 -625.21226991 86.37847198 -625.17895508 95.22171021 C-625.15805068 100.62406192 -625.12277999 106.02615787 -625.07819748 111.4283638 C-625.06400146 113.49125794 -625.05530696 115.55419735 -625.0521431 117.61713791 C-625.04725372 120.50008792 -625.02414662 123.38235513 -624.99682617 126.26516724 C-624.99983231 127.12242905 -625.00283844 127.97969086 -625.00593567 128.8629303 C-625.05826346 133.11013278 -625.05826346 133.11013278 -623.32280787 136.84612897 C-621.15130653 138.44234166 -619.98776701 138.50303338 -617.30855429 138.50533247 C-616.43014246 138.51335548 -615.55173063 138.52137848 -614.64670026 138.52964461 C-613.67896417 138.52319281 -612.71122807 138.516741 -611.71416664 138.51009369 C-610.16889195 138.51753296 -610.16889195 138.51753296 -608.5923996 138.52512252 C-605.1058806 138.53817871 -601.61973833 138.52966221 -598.13320923 138.52139282 C-595.62217732 138.52627698 -593.11114765 138.53246456 -590.60012186 138.53985071 C-585.12283666 138.55288374 -579.6456678 138.55648697 -574.1683712 138.55189133 C-566.02354355 138.54507518 -557.87879991 138.55529638 -549.73398392 138.56884889 C-534.34282211 138.59379917 -518.95169491 138.59827596 -503.56051613 138.59638292 C-491.67751961 138.59501146 -479.79453515 138.5988196 -467.91154099 138.60630798 C-466.20614209 138.60735831 -464.50074319 138.60840592 -462.79534429 138.60945085 C-461.9488302 138.60997019 -461.10231611 138.61048953 -460.23015009 138.61102462 C-459.38211235 138.61154476 -458.53407461 138.6120649 -457.66033876 138.6126008 C-456.81091339 138.6131248 -455.96148801 138.61364879 -455.08632248 138.61418866 C-431.18480469 138.62877868 -407.28329133 138.63705148 -383.38176918 138.63243866 C-382.48013142 138.6322667 -381.57849366 138.63209475 -380.64953355 138.63191758 C-376.07936732 138.63102865 -371.50920111 138.63008384 -366.93903489 138.62911958 C-365.57748902 138.62883303 -365.57748902 138.62883303 -364.18843717 138.62854069 C-362.35285133 138.6281536 -360.5172655 138.62776327 -358.68167966 138.62736971 C-330.11628526 138.62139891 -301.55097184 138.63683875 -272.9855957 138.66897583 C-240.91366167 138.70502706 -208.84177901 138.72438895 -176.76982343 138.71943712 C-173.35212732 138.71896712 -169.9344312 138.71855688 -166.51673508 138.71818542 C-165.67517305 138.71808304 -164.83361102 138.71798065 -163.96654712 138.71787516 C-151.24487258 138.71667875 -138.5232534 138.72866819 -125.80159378 138.74732971 C-111.33832101 138.76853538 -96.87516461 138.77244878 -82.41188671 138.75303012 C-74.3121917 138.7426788 -66.21278026 138.74623743 -58.11311069 138.76956098 C-52.07487376 138.7854112 -46.03698066 138.77530371 -39.99874513 138.75483996 C-37.54855959 138.75062397 -35.09834228 138.75495357 -32.64819022 138.7684359 C-29.3309923 138.78545394 -26.01529933 138.77201298 -22.69816017 138.75060272 C-21.73510641 138.76288025 -20.77205265 138.77515777 -19.77981544 138.78780735 C-15.20405413 138.72562544 -13.21862399 138.61644528 -9.48721135 135.75512862 C-7.28189921 132.71568596 -6.95345434 131.24158038 -6.94781494 127.52120972 C-6.92705147 125.84706497 -6.92705147 125.84706497 -6.90586853 124.13909912 C-6.91606522 122.92434906 -6.9262619 121.709599 -6.93676758 120.45803833 C-6.92789017 119.17144318 -6.91901276 117.88484802 -6.90986633 116.55926514 C-6.88600608 113.03874596 -6.89256944 109.51886079 -6.90435505 105.99830532 C-6.91120781 102.31514535 -6.88909431 98.63216551 -6.86981201 94.94906616 C-6.83752509 87.97697309 -6.82969626 81.00508702 -6.83138633 74.03292775 C-6.83284847 63.78530825 -6.79937037 53.53778941 -6.7636528 43.29024124 C-6.75842827 41.78084565 -6.75320593 40.27145005 -6.74798584 38.76205444 C-6.74538089 38.02549976 -6.74277593 37.28894507 -6.74009204 36.53007054 C-6.72542058 32.14064922 -6.71850874 27.75129943 -6.71833754 23.36185408 C-6.71784766 21.29319173 -6.71530067 19.22454332 -6.71195984 17.15588379 C-6.70826951 14.62817651 -6.7083214 12.10046015 -6.71266174 9.57275391 C-6.71009872 8.46793671 -6.70753571 7.36311951 -6.70489502 6.224823 C-6.70493656 5.25882549 -6.7049781 4.29282799 -6.7050209 3.29755783 C-6.45650276 -1.02828779 -3.71892022 0.00132316 0 0 Z " fill="#FEFEFE" transform="translate(799.580322265625,769.8730163574219)"/>
<path d="M0 0 C0.89311512 -0.00241442 1.78623024 -0.00482883 2.70640945 -0.00731641 C5.67503605 -0.01291614 8.64344389 -0.00431883 11.61206055 0.00431824 C13.74966998 0.00324449 15.88727913 0.00130443 18.02488708 -0.00143433 C23.81145575 -0.00626861 29.59794693 0.00135364 35.38450623 0.01151872 C41.43919789 0.02031477 47.49388724 0.01854152 53.54858398 0.01815796 C63.70663752 0.0190934 73.86466111 0.02776422 84.02270508 0.04142761 C95.78181935 0.05718567 107.54090092 0.06242449 119.30002499 0.06169206 C130.60613905 0.06108287 141.91224242 0.06617614 153.21835327 0.07448387 C158.03494347 0.0780223 162.8515299 0.0798479 167.66812134 0.08037758 C173.32832611 0.08137828 178.98850317 0.0874524 184.64869881 0.09754372 C186.73170871 0.1004765 188.8147218 0.10169252 190.89773369 0.10111618 C193.72799497 0.1006292 196.55817738 0.10624418 199.38842773 0.11352539 C200.2237116 0.11197679 201.05899546 0.11042819 201.91959095 0.10883266 C207.5720999 0.13305876 207.5720999 0.13305876 208.6862793 1.24723816 C208.78553979 3.49784874 208.81260364 5.751642 208.81326294 8.00444031 C208.81482293 8.71921083 208.81638292 9.43398135 208.81799018 10.17041159 C208.82200264 12.58341075 208.81880961 14.99634782 208.81567383 17.40934753 C208.81702776 19.1319889 208.81880765 20.85462998 208.82098389 22.57727051 C208.82555918 27.26928473 208.82376827 31.96127707 208.8206048 36.6532917 C208.81808169 41.5522429 208.8204186 46.45119216 208.82199097 51.35014343 C208.82381281 59.57870319 208.82140598 67.80725398 208.81665039 76.03581238 C208.81120774 85.56350914 208.81297039 95.09118451 208.8184768 104.61888075 C208.82300752 112.78360665 208.82365868 120.94832609 208.82103813 129.11305285 C208.81947513 133.99630109 208.81928221 138.87953926 208.82257462 143.76278687 C208.82545274 148.3525919 208.82347873 152.94236922 208.81768036 157.53217125 C208.81635244 159.22171164 208.81674741 160.91125435 208.81894302 162.60079384 C208.8216533 164.89723993 208.81827493 167.19359576 208.81326294 169.49003601 C208.81288591 170.77832558 208.81250889 172.06661514 208.81212044 173.39394379 C208.6862793 176.24723816 208.6862793 176.24723816 207.6862793 177.24723816 C204.93842542 177.35400321 202.21540278 177.39502171 199.46676636 177.39440918 C198.59444811 177.39808587 197.72212986 177.40176256 196.82337773 177.40555066 C193.87646802 177.41663496 190.9295935 177.42043948 187.98266602 177.42424011 C185.87880337 177.43050165 183.77494184 177.43714817 181.67108154 177.44415283 C175.9347832 177.46160225 170.19849323 177.47212732 164.46217489 177.48035836 C160.87617058 177.48550477 157.29016888 177.49158095 153.70416641 177.49786949 C142.47920503 177.51694055 131.25425026 177.53116233 120.02927577 177.53948146 C107.08412231 177.54923371 94.13914075 177.57549252 81.19404781 177.61598235 C71.185382 177.64620862 61.17676524 177.66095688 51.1680547 177.66426247 C45.1932871 177.66660737 39.21870273 177.67549347 33.24398422 177.70072365 C27.61167173 177.72412034 21.97966154 177.7281911 16.34731293 177.71796227 C14.28952907 177.71746945 12.23172977 177.72371399 10.17399216 177.73751831 C-4.90969175 177.83296935 -18.5473729 176.65754777 -32.0012207 169.12223816 C-32.70907715 168.73318298 -33.41693359 168.34412781 -34.14624023 167.94328308 C-53.81760754 156.77983783 -67.63203778 137.95361346 -74.7512207 116.62223816 C-80.68057572 94.90834446 -79.96848483 70.77353121 -70.3137207 50.24723816 C-69.83290039 49.20567566 -69.35208008 48.16411316 -68.85668945 47.09098816 C-58.2325817 25.79107383 -40.91121276 10.05301356 -18.3137207 2.24723816 C-12.1478456 0.56812891 -6.37366173 -0.04010497 0 0 Z M108.8112793 68.62223816 C102.97543814 76.61950197 101.08015737 85.99581585 101.90112305 95.81755066 C103.71011968 106.80935875 109.02309518 115.30021571 117.6862793 122.24723816 C127.323655 128.27979395 137.53353045 131.05896012 148.7800293 128.55973816 C159.49700335 125.31217026 168.59309958 118.88784029 173.9753418 108.84098816 C178.39089722 99.05687975 179.9425503 87.0775033 176.1237793 76.74723816 C171.09833218 66.43368989 163.20450358 58.64444761 152.4987793 54.30973816 C135.3998757 49.46757077 119.87367581 55.3612482 108.8112793 68.62223816 Z " fill="#FEFEFE" transform="translate(730.313720703125,538.7527618408203)"/>
<path d="M0 0 C6.48086412 19.09174046 12.78438992 38.23487788 18.80413818 57.47744751 C19.43426379 59.49104789 20.06630102 61.50405105 20.70025635 63.51644897 C21.59270134 66.35286229 22.47728007 69.19160333 23.359375 72.03125 C23.62755035 72.88076736 23.89572571 73.73028473 24.17202759 74.60554504 C24.41399872 75.39120346 24.65596985 76.17686188 24.90527344 76.98632812 C25.11778748 77.66828247 25.33030151 78.35023682 25.54925537 79.05285645 C26 81 26 81 26 85 C-70.69 85 -167.38 85 -267 85 C-263.86063229 81.86063229 -262.39764281 81.23859935 -258.27758789 79.94140625 C-256.49269203 79.37191757 -256.49269203 79.37191757 -254.67173767 78.79092407 C-253.35542973 78.38128054 -252.03906752 77.97181136 -250.72265625 77.5625 C-249.34512549 77.12673793 -247.96785752 76.69014438 -246.59083557 76.2527771 C-242.86357674 75.07142779 -239.13282589 73.90148043 -235.40137482 72.73345184 C-231.46969244 71.50050869 -227.54140058 70.25685844 -223.61279297 69.01416016 C-217.17304107 66.97844559 -210.73151142 64.94846118 -204.28857422 62.92285156 C-195.95046903 60.30112425 -187.61673081 57.66583728 -179.28515625 55.0234375 C-176.8212894 54.24210506 -174.35742221 53.46077367 -171.89355469 52.67944336 C-170.09331848 52.1085347 -170.09331848 52.1085347 -168.25671387 51.52609253 C-162.13682503 49.58635868 -156.01558634 47.65089349 -149.89453125 45.71484375 C-139.68165847 42.48394417 -129.47082978 39.24666758 -119.26171875 36.00390625 C-118.60398153 35.79498686 -117.94624432 35.58606747 -117.26857567 35.37081718 C-114.60700555 34.52538774 -111.94544861 33.67991683 -109.28390408 32.83440685 C-87.51183563 25.91793657 -65.73699592 19.01031497 -43.95419312 12.12771606 C-41.47188011 11.34334401 -38.98963958 10.55874259 -36.50747681 9.77389526 C-33.08205147 8.69093718 -29.65631261 7.60897706 -26.23046875 6.52734375 C-24.73796097 6.05530518 -24.73796097 6.05530518 -23.21530151 5.57373047 C-21.36261701 4.98930971 -19.50902205 4.40776483 -17.65438843 3.82955933 C-15.85290051 3.26655163 -14.05414796 2.69473057 -12.25796509 2.11502075 C-11.38433319 1.83931244 -10.51070129 1.56360413 -9.6105957 1.27954102 C-8.45742607 0.90962791 -8.45742607 0.90962791 -7.28096008 0.53224182 C-4.78666284 -0.04978034 -2.5525693 -0.09229082 0 0 Z " fill="#FEFEFE" transform="translate(755,61)"/>
<path d="M0 0 C3 1 3 1 3.90722656 2.68652344 C4.14924805 3.40356445 4.39126953 4.12060547 4.640625 4.859375 C4.90617187 5.64570313 5.17171875 6.43203125 5.4453125 7.2421875 C5.71085937 8.06976563 5.97640625 8.89734375 6.25 9.75 C6.53101563 10.56210938 6.81203125 11.37421875 7.1015625 12.2109375 C7.36195313 13.00242187 7.62234375 13.79390625 7.890625 14.609375 C8.12813477 15.33092773 8.36564453 16.05248047 8.61035156 16.79589844 C9.07785932 19.44042225 8.57757471 21.39798931 8 24 C-24.22913823 34.23666735 -56.46031642 44.46677688 -88.69973755 54.67102051 C-102.72224599 59.10950888 -116.74361054 63.55154221 -130.76171875 68.00390625 C-131.41765644 68.21223965 -132.07359413 68.42057304 -132.74940872 68.63521957 C-136.06733082 69.68905222 -139.38523215 70.74295027 -142.703125 71.796875 C-165.12940688 78.92053365 -187.56155035 86.02519616 -210.00180054 93.10476685 C-228.1775636 98.83941156 -246.34591164 104.59710038 -264.51023102 110.36785889 C-284.9636058 116.86580876 -305.41986105 123.35448286 -325.8840332 129.81835938 C-328.34453236 130.59554504 -330.80498297 131.37288443 -333.26538086 132.15039062 C-336.6689329 133.22581607 -340.07270622 134.30053793 -343.4765625 135.375 C-344.45609894 135.68453613 -345.43563538 135.99407227 -346.44485474 136.31298828 C-348.33646758 136.9096801 -350.23023157 137.49959642 -352.12611389 138.08258057 C-354.09591982 138.71139402 -356.05130911 139.38670443 -357.9919281 140.1005249 C-367.28692098 143.36442588 -375.74169366 143.52256506 -385.45703125 143.390625 C-387.09754235 143.38314463 -388.73806251 143.37746021 -390.37858582 143.37347412 C-394.65139379 143.3583588 -398.92363909 143.31920301 -403.19622803 143.2746582 C-407.57410068 143.23339702 -411.95206618 143.21539793 -416.33007812 143.1953125 C-424.88697409 143.15269143 -433.44341663 143.08461654 -442 143 C-439.44458978 139.90438383 -436.83006322 139.0585437 -433.04980469 137.86547852 C-431.8094194 137.46900116 -430.56903412 137.0725238 -429.2910614 136.66403198 C-427.91805126 136.23549012 -426.5449874 135.80712034 -425.171875 135.37890625 C-423.73495647 134.92334844 -422.29830133 134.46695914 -420.8618927 134.00979614 C-416.97335756 132.77469407 -413.08132435 131.55097221 -409.18858719 130.3291893 C-405.09355928 129.04171674 -401.00188751 127.74366795 -396.90991211 126.4465332 C-390.19204451 124.31826639 -383.47240212 122.19570024 -376.75146484 120.07714844 C-367.89901879 117.28626 -359.05184215 114.47904234 -350.20703125 111.6640625 C-347.57350458 110.82611452 -344.93995398 109.98824174 -342.30639648 109.15039062 C-341.34480794 108.8444504 -341.34480794 108.8444504 -340.36379337 108.53232956 C-317.65245634 101.30759409 -294.92593479 94.13082797 -272.197052 86.96151733 C-252.08462738 80.6167738 -231.98616186 74.22882584 -211.89141464 67.82838821 C-190.9469717 61.15741596 -169.99346677 54.51609104 -149.02978516 47.90576172 C-128.29108445 41.36543042 -107.56696393 34.77995445 -86.84817505 28.17687988 C-72.3228475 23.54768523 -57.79492333 18.92741709 -43.2520256 14.35366821 C-41.209327 13.71121837 -39.16673744 13.06842296 -37.12417603 12.42553711 C-30.75005923 10.41961787 -24.37491601 8.41708021 -17.99804688 6.41992188 C-15.74735757 5.71236128 -13.49670435 5.0046859 -11.24609375 4.296875 C-9.69818398 3.81411102 -9.69818398 3.81411102 -8.1190033 3.32159424 C-7.18826492 3.02823181 -6.25752655 2.73486938 -5.29858398 2.43261719 C-4.48727524 2.17841003 -3.67596649 1.92420288 -2.84007263 1.66229248 C-1.00869908 1.15065082 -1.00869908 1.15065082 0 0 Z " fill="#FEFEFE" transform="translate(734,3)"/>
</svg>
